<svg
viewBox="0 0 975 146"
xmlns="http://www.w3.org/2000/svg"
>
<title>BeInCrypto</title>
<path
fill-rule="evenodd"
clip-rule="evenodd"
d="M394.748 5.5161C394.748 4.05314 395.329 2.6501 396.363 1.61564C397.397 0.581168 398.8 1.00074e-05 400.262 1.00074e-05H421.448C422.173 -0.00137146 422.891 0.140287 423.561 0.416878C424.231 0.693469 424.84 1.09956 425.354 1.61192C425.867 2.12427 426.274 2.73283 426.552 3.40275C426.829 4.07268 426.972 4.79083 426.972 5.5161V22.7893C426.972 24.2523 427.553 25.6553 428.588 26.6898C429.622 27.7243 431.024 28.3054 432.487 28.3054H449.187C450.649 28.3082 452.05 28.8903 453.083 29.9241C454.117 30.958 454.699 32.3594 454.701 33.8215V111.635C454.703 112.36 454.561 113.078 454.284 113.748C454.008 114.418 453.602 115.026 453.089 115.539C452.577 116.051 451.969 116.457 451.299 116.734C450.629 117.011 449.912 117.153 449.187 117.151H432.487C431.762 117.151 431.044 117.294 430.374 117.572C429.704 117.85 429.096 118.257 428.584 118.771C428.072 119.284 427.666 119.893 427.389 120.564C427.113 121.234 426.971 121.953 426.972 122.678V139.941C426.972 140.666 426.829 141.384 426.552 142.054C426.274 142.724 425.867 143.332 425.354 143.845C424.84 144.357 424.231 144.763 423.561 145.04C422.891 145.316 422.173 145.458 421.448 145.457H400.262C398.8 145.457 397.397 144.876 396.363 143.841C395.329 142.807 394.748 141.404 394.748 139.941V118.727C394.748 117.264 395.329 115.861 396.363 114.827C397.397 113.792 398.8 113.211 400.262 113.211H416.984C418.446 113.211 419.849 112.63 420.883 111.596C421.917 110.561 422.498 109.158 422.498 107.695V37.7511C422.499 37.0258 422.358 36.3074 422.081 35.6369C421.805 34.9665 421.399 34.3571 420.887 33.8438C420.374 33.3305 419.766 32.9232 419.096 32.6454C418.427 32.3675 417.709 32.2245 416.984 32.2245H400.262C399.538 32.2259 398.82 32.0841 398.15 31.8074C397.481 31.5307 396.872 31.1244 396.36 30.6119C395.848 30.0994 395.442 29.4908 395.165 28.8209C394.888 28.1511 394.747 27.4332 394.748 26.7084V5.5161Z"
fill="#FFFFFF"
/>
<path
fill-rule="evenodd"
clip-rule="evenodd"
d="M241 5.51609C241 4.05313 240.419 2.65009 239.385 1.61563C238.35 0.581158 236.948 0 235.485 0L214.269 0C212.807 0.00277703 211.406 0.584827 210.372 1.61869C209.339 2.65256 208.757 4.05398 208.754 5.51609V22.7893C208.754 24.2523 208.173 25.6553 207.139 26.6898C206.105 27.7243 204.703 28.3054 203.24 28.3054H186.54C185.078 28.3082 183.677 28.8902 182.644 29.9241C181.61 30.958 181.028 32.3594 181.025 33.8215V111.635C181.024 112.36 181.166 113.078 181.442 113.748C181.719 114.418 182.125 115.026 182.637 115.539C183.15 116.051 183.758 116.457 184.428 116.734C185.097 117.011 185.815 117.153 186.54 117.151H203.24C203.965 117.151 204.683 117.294 205.353 117.572C206.022 117.85 206.631 118.257 207.143 118.771C207.655 119.284 208.061 119.893 208.338 120.564C208.614 121.234 208.756 121.953 208.754 122.678V139.941C208.757 141.403 209.339 142.804 210.372 143.838C211.406 144.872 212.807 145.454 214.269 145.457H235.485C236.948 145.457 238.35 144.876 239.385 143.841C240.419 142.807 241 141.404 241 139.941V118.727C241 117.264 240.419 115.861 239.385 114.827C238.35 113.792 236.948 113.211 235.485 113.211H218.775C217.312 113.211 215.909 112.63 214.875 111.596C213.841 110.561 213.26 109.158 213.26 107.695V37.7511C213.259 37.0258 213.4 36.3074 213.677 35.6369C213.953 34.9665 214.359 34.3571 214.872 33.8438C215.384 33.3305 215.992 32.9232 216.662 32.6454C217.332 32.3675 218.049 32.2245 218.775 32.2245H235.485C236.21 32.2259 236.928 32.0841 237.597 31.8074C238.267 31.5307 238.875 31.1244 239.388 30.6119C239.9 30.0994 240.306 29.4908 240.583 28.8209C240.859 28.1511 241.001 27.4332 241 26.7084V5.51609Z"
fill="#FFFFFF"
/>
<path
fill-rule="evenodd"
clip-rule="evenodd"
d="M298.232 38.1606C298.235 36.9409 298.721 35.772 299.583 34.9095C300.445 34.0471 301.614 33.5614 302.833 33.5586H349.394C350.288 33.5626 351.162 33.8271 351.908 34.3197C352.654 34.8123 353.241 35.5117 353.596 36.3324L361.148 53.7737C361.5 54.5972 362.086 55.2996 362.832 55.7943C363.579 56.289 364.453 56.5545 365.349 56.5581H380.957C381.561 56.5567 382.159 56.6744 382.717 56.9045C383.275 57.1347 383.782 57.4727 384.209 57.8992C384.637 58.3257 384.976 58.8323 385.207 59.39C385.438 59.9478 385.557 60.5457 385.557 61.1495V112.633C385.557 113.854 385.073 115.024 384.21 115.887C383.347 116.75 382.177 117.235 380.957 117.235H361.2C359.98 117.235 358.81 116.75 357.947 115.887C357.084 115.024 356.6 113.854 356.6 112.633V64.8269C356.6 63.6082 356.116 62.4393 355.256 61.5765C354.395 60.7138 353.228 60.2277 352.01 60.2249H331.78C330.562 60.2277 329.394 60.7138 328.534 61.5765C327.673 62.4393 327.19 63.6082 327.19 64.8269V112.633C327.19 113.854 326.706 115.024 325.843 115.887C324.98 116.75 323.81 117.235 322.59 117.235H302.833C301.613 117.235 300.443 116.75 299.58 115.887C298.717 115.024 298.232 113.854 298.232 112.633V38.1606Z"
fill="#FFFFFF"
/>
<path
d="M251.356 38.1606C251.359 36.9409 251.845 35.772 252.707 34.9095C253.569 34.0471 254.738 33.5614 255.957 33.5586H275.714C276.933 33.5614 278.102 34.0471 278.964 34.9095C279.826 35.772 280.311 36.9409 280.314 38.1606V112.633C280.314 113.854 279.83 115.024 278.967 115.887C278.104 116.75 276.934 117.235 275.714 117.235H255.957C254.737 117.235 253.567 116.75 252.704 115.887C251.841 115.024 251.356 113.854 251.356 112.633V38.1606Z"
fill="#FFFFFF"
/>
<path
d="M58.3147 73.0651V73.5484C62.229 74.9106 65.6605 77.3864 68.1879 80.6721C70.8401 84.2409 72.2028 88.6046 72.0531 93.0491C72.1367 96.3139 71.5103 99.5578 70.2172 102.557C68.9242 105.555 66.9954 108.237 64.5642 110.417C59.6269 114.922 53.1371 117.34 46.4564 117.162H0V33.4648H44.9544C52.0337 33.4648 57.9436 35.5067 62.6841 39.5903C65.0011 41.545 66.8454 43.9992 68.0787 46.7688C69.3121 49.5383 69.9024 52.5514 69.8054 55.5817C69.8259 59.32 68.7286 62.979 66.6544 66.0886C64.5848 69.1515 61.6945 71.5694 58.3147 73.0651ZM40.8371 51.8308H20.6076V66.698H40.8371C41.8796 66.7436 42.9199 66.5666 43.8887 66.1789C44.8576 65.7913 45.7329 65.2017 46.4564 64.4495C47.8672 63.0623 48.6748 61.1748 48.7041 59.1961C48.7057 57.277 47.9509 55.4348 46.6034 54.0688C45.8546 53.3097 44.9537 52.7179 43.9598 52.3322C42.9659 51.9464 41.9017 51.7756 40.8371 51.8308ZM20.6076 98.9224H42.5807C43.6993 98.9536 44.8119 98.7478 45.8454 98.3187C46.879 97.8895 47.8103 97.2467 48.5781 96.4323C50.0807 94.9417 50.9339 92.9175 50.9518 90.8007C50.9454 89.8457 50.7295 88.9038 50.3193 88.0414C49.9091 87.1791 49.3147 86.4173 48.5781 85.8099C46.9541 84.2978 44.7981 83.4895 42.5807 83.5614H20.6076V98.9224Z"
fill="#FFFFFF"
/>
<path
d="M147.046 117.162H81.8311V33.4648H147.046V53.4278H102.428V65.4371H140.744V84.1814H102.428V97.1783H147.046V117.162Z"
fill="#FFFFFF"
/>
<path
d="M548.853 82.2065H569.944C569.097 92.3761 564.342 101.821 556.678 108.558C548.934 115.464 539.131 118.917 527.269 118.917C514.294 118.917 503.812 114.757 495.822 106.435C487.832 98.1138 483.834 87.7891 483.827 75.4611C483.827 63.077 487.822 52.6752 495.811 44.2558C503.801 35.8363 514.287 31.5915 527.269 31.5215C538.844 31.5215 548.496 34.9327 556.227 41.7551C563.829 48.2443 568.65 57.4069 569.692 67.3498H548.36C547.261 62.8208 544.635 58.8094 540.923 55.9919C536.937 53.0168 532.036 51.5301 527.069 51.7892C520.158 51.8732 514.707 54.1637 510.716 58.6606C506.764 63.2711 504.674 69.1908 504.855 75.2614C504.694 81.389 506.83 87.3552 510.842 91.9883C514.791 96.4572 520.267 98.6917 527.269 98.6917C532.327 98.854 537.294 97.315 541.375 94.3208C545.219 91.2926 547.869 87.0012 548.853 82.2065Z"
fill="#FFFFFF"
/>
<path
d="M597.347 117.035H576.75V33.4004H619.929C628.92 33.4004 636.077 35.4352 641.398 39.5049C646.72 43.5745 649.423 49.3182 649.507 56.7361C649.507 64.6512 646.762 70.5631 641.272 74.4716V74.9654C648.429 76.7166 652.007 82.0821 652.007 91.0619V117.035H631.41V94.6868C631.41 91.6048 629.831 90.0673 626.673 90.0743H597.347V117.035ZM597.347 53.3739V71.8449H618.186C621.009 71.9958 623.789 71.1061 626 69.3443C627.005 68.4899 627.799 67.4147 628.32 66.2027C628.841 64.9907 629.075 63.6746 629.004 62.3572C629.067 61.0958 628.827 59.8376 628.305 58.6878C627.782 57.5381 626.992 56.5302 626 55.7484C623.774 54.0888 621.043 53.2499 618.27 53.3739H597.347Z"
fill="#FFFFFF"
/>
<path
d="M709.923 33.4004H732.768L700.06 86.5755V117.045H679.473V86.7016L646.65 33.4004H669.989L689.945 67.0958L709.923 33.4004Z"
fill="#FFFFFF"
/>
<path
d="M780.631 33.4015C784.526 33.3038 788.4 34.0058 792.013 35.4641C795.626 36.9225 798.902 39.1062 801.638 41.8806C807.303 47.4492 810.132 54.4537 810.125 62.8942C810.125 71.5519 807.254 78.672 801.512 84.2546C798.783 86.9829 795.529 89.1296 791.948 90.5653C788.366 92.0009 784.531 92.6956 780.674 92.6076H758.039V117.078H737.452V33.4015H780.631ZM758.039 73.0859H778.762C781.475 73.1562 784.11 72.1735 786.114 70.3436C787.116 69.4081 787.903 68.2657 788.42 66.9958C788.937 65.7258 789.172 64.3585 789.108 62.9888C789.145 61.6799 788.88 60.38 788.333 59.1901C787.787 58.0003 786.974 56.9524 785.957 56.1278C783.99 54.3107 781.396 53.3277 778.72 53.3855H758.039V73.0859Z"
fill="#FFFFFF"
/>
<path
d="M812.204 33.4004H886.967V53.3634H859.879V117.024H839.292V53.3739H812.204V33.4004Z"
fill="#FFFFFF"
/>
<path
d="M962.172 106.435C954.021 114.743 943.329 118.903 930.095 118.917C916.86 118.931 906.175 114.771 898.038 106.435C889.881 98.0298 885.802 87.705 885.802 75.4611C885.802 63.2171 889.881 52.8153 898.038 44.2558C906.182 35.7662 916.867 31.5215 930.095 31.5215C943.322 31.5215 954.014 35.7662 962.172 44.2558C970.322 52.7453 974.398 63.1471 974.398 75.4611C974.398 87.7751 970.322 98.0998 962.172 106.435ZM930.095 98.6917C937.174 98.6917 942.832 96.4012 947.068 91.8202C951.279 87.3326 953.564 81.3729 953.433 75.2194C953.595 69.0606 951.305 63.0896 947.068 58.6186C942.909 54.0306 937.251 51.7401 930.095 51.7471C922.938 51.7542 917.238 54.0446 912.995 58.6186C908.828 63.1249 906.589 69.0831 906.756 75.2194C906.619 81.3506 908.854 87.298 912.995 91.8202C917.238 96.4012 922.938 98.6917 930.095 98.6917Z"
fill="#FFFFFF"
/>
</svg>