<svg
viewBox="0 0 32 32"
fill="none"
xmlns="http://www.w3.org/2000/svg"
>
<title>Browserbase</title>
<path
fill-rule="evenodd"
clip-rule="evenodd"
d="M30.788 0.96H0.708047V31.04H30.788V0.96ZM-0.251953 0V32H31.748V0H-0.251953Z"
fill="#FFFFFF"
/>
<path
d="M8.5 8H15.5C17.433 8 19 9.567 19 11.5C19 12.617 18.468 13.608 17.646 14.25C18.715 14.82 19.5 15.966 19.5 17.25C19.5 19.32 17.82 21 15.75 21H8.5V8ZM10.5 13.5H15C15.828 13.5 16.5 12.828 16.5 12C16.5 11.172 15.828 10.5 15 10.5H10.5V13.5ZM10.5 18.5H15.25C16.216 18.5 17 17.716 17 16.75C17 15.784 16.216 15 15.25 15H10.5V18.5Z"
fill="#FFFFFF"
/>
</svg>