<svg
viewBox="0 0 13 13"
fill="none"
xmlns="http://www.w3.org/2000/svg"
>
<title>Mem0</title>
<path
d="M 0 6.5 C 0 2.91 2.91 0 6.5 0 C 10.09 0 13 2.91 13 6.5 C 13 10.09 10.09 13 6.5 13 C 2.91 13 0 10.09 0 6.5 Z M 8.907 5.29 C 9.018 5.145 9.04 4.951 8.966 4.784 C 8.892 4.618 8.733 4.504 8.552 4.489 C 8.37 4.473 8.194 4.558 8.093 4.71 L 5.936 7.73 L 4.853 6.646 C 4.655 6.469 4.354 6.478 4.166 6.665 C 3.979 6.853 3.97 7.154 4.147 7.352 L 5.647 8.852 C 5.751 8.956 5.895 9.009 6.041 8.997 C 6.188 8.985 6.321 8.909 6.407 8.79 Z"
fill="#166534"
/>
</svg>