<svg xmlns="http://www.w3.org/2000/svg"
viewBox="0 0 512 368"
width="512"
height="368"
>
<title>pnpm Logo</title>
<path
d="M511.999952,126.273838 L511.999952,241.068235 L397.205554,241.068235 L397.205554,126.273838 L511.999952,126.273838 Z M511.999952,0 L511.999952,114.794398 L397.205554,114.794398 L397.205554,0 L511.999952,0 Z M385.726115,0 L385.726115,114.794398 L270.931717,114.794398 L270.931717,0 L385.726115,0 Z M259.452277,0 L259.452277,114.794398 L144.657879,114.794398 L144.657879,0 L259.452277,0 Z"
fill="#F9AD00"
/>
<path
d="M385.726115,252.547675 L385.726115,367.342073 L270.931717,367.342073 L270.931717,252.547675 L385.726115,252.547675 Z M511.999952,252.547675 L511.999952,367.342073 L397.205554,367.342073 L397.205554,252.547675 L511.999952,252.547675 Z M259.452277,252.547675 L259.452277,367.342073 L144.657879,367.342073 L144.657879,252.547675 L259.452277,252.547675 Z M385.726115,126.273838 L385.726115,241.068235 L270.931717,241.068235 L270.931717,126.273838 L385.726115,126.273838 Z"
fill="#4E4E4E"
/>
</svg>